<svg width="24" height="24" viewBox="0 0 24 24" fill="none" xmlns="http://www.w3.org/2000/svg">
<g clip-path="url(#clip0_110_24)">
<path d="M23.8484 11.9999C23.8484 5.4539 18.5444 0.149902 11.9984 0.149902C5.45244 0.149902 0.148438 5.4539 0.148438 11.9999C0.148438 17.5559 3.97644 22.2179 9.13644 23.5019V15.6239H6.69444V11.9999H9.13644V10.4399C9.13644 6.4079 10.9604 4.5359 14.9204 4.5359C15.6704 4.5359 16.9664 4.6859 17.4944 4.8299V8.1119C17.2124 8.0819 16.7264 8.0699 16.1264 8.0699C14.1824 8.0699 13.4324 8.8079 13.4324 10.7219V11.9999H17.3024L16.6364 15.6239H13.4324V23.7659C19.3004 23.0579 23.8484 18.0599 23.8484 11.9999Z" fill="#0866FF"/>
<path d="M16.6451 15.6241L17.3111 12.0001H13.4411V10.7221C13.4411 8.80813 14.1911 8.07013 16.1351 8.07013C16.7411 8.07013 17.2271 8.08213 17.5031 8.11213V4.83013C16.9751 4.68013 15.6791 4.53613 14.9291 4.53613C10.9691 4.53613 9.14512 6.40813 9.14512 10.4401V12.0001H6.70312V15.6241H9.14512V23.5021C10.0631 23.7301 11.0231 23.8501 12.0071 23.8501C12.4931 23.8501 12.9731 23.8201 13.4411 23.7661V15.6241H16.6451Z" fill="white"/>
</g>
<defs>
<clipPath id="clip0_110_24">
<rect width="24" height="24" fill="white"/>
</clipPath>
</defs>
</svg>
