<svg xmlns="http://www.w3.org/2000/svg" width="40" height="40" viewBox="0 0 40 40">
    <path d="M39.75,20C39.75,9.09,30.91.25,20,.25S.25,9.09.25,20c0,9.26,6.38,17.03,14.98,19.17v-13.13h-4.07v-6.04h4.07v-2.6c0-6.72,3.04-9.84,9.64-9.84,1.25,0,3.41.25,4.29.49v5.47c-.47-.05-1.28-.07-2.28-.07-3.24,0-4.49,1.23-4.49,4.42v2.13h6.45l-1.11,6.04h-5.34v13.57c9.78-1.18,17.36-9.51,17.36-19.61Z" style="fill:#0866ff;stroke-width:0px"/>
    <path d="M27.74,26.04l1.11-6.04h-6.45v-2.13c0-3.19,1.25-4.42,4.49-4.42,1.01,0,1.82.02,2.28.07v-5.47c-.88-.25-3.04-.49-4.29-.49-6.6,0-9.64,3.12-9.64,9.84v2.6h-4.07v6.04h4.07v13.13c1.53.38,3.13.58,4.77.58.81,0,1.61-.05,2.39-.14v-13.57h5.34Z" style="fill:#fff;stroke-width:0px"/>
    <rect width="40" height="40" style="fill:none;stroke-width:0px"/>
</svg>
