<svg width="179" height="61" viewBox="0 0 179 61" fill="none" xmlns="http://www.w3.org/2000/svg">
<g filter="url(#filter0_d_125_13)">
<path d="M21.288 41C20.968 41 20.536 40.92 19.992 40.76C19.48 40.568 18.936 40.328 18.36 40.04C17.784 39.752 17.256 39.448 16.776 39.128C16.296 38.808 15.944 38.488 15.72 38.168L8.376 11C8.28 10.552 8.104 10.2 7.848 9.944C7.592 9.688 7.192 9.56 6.648 9.56H4.344C4.216 9.496 4.104 9.384 4.008 9.224C3.912 9.064 3.848 8.872 3.816 8.648C3.976 8.456 4.232 8.248 4.584 8.024C4.968 7.8 5.352 7.608 5.736 7.448C6.152 7.256 6.456 7.16 6.648 7.16H17.112C17.272 7.288 17.416 7.496 17.544 7.784C17.672 8.072 17.736 8.392 17.736 8.744L15.48 9.32C14.968 9.416 14.504 9.592 14.088 9.848C13.672 10.072 13.384 10.424 13.224 10.904C13.096 11.352 13.144 12.024 13.368 12.92L19.512 36.344C19.832 36.632 20.216 36.888 20.664 37.112C21.144 37.336 21.64 37.512 22.152 37.64C22.664 37.768 23.128 37.832 23.544 37.832L28.776 18.584L26.808 11.144C26.68 10.632 26.488 10.248 26.232 9.992C25.976 9.704 25.528 9.56 24.888 9.56H22.68C22.584 9.464 22.472 9.352 22.344 9.224C22.248 9.064 22.184 8.872 22.152 8.648C22.312 8.456 22.568 8.248 22.92 8.024C23.304 7.768 23.688 7.56 24.072 7.4C24.488 7.24 24.792 7.16 24.984 7.16H35.64C35.768 7.288 35.896 7.496 36.024 7.784C36.152 8.072 36.216 8.392 36.216 8.744L33.576 9.272C32.936 9.432 32.424 9.608 32.04 9.8C31.688 9.992 31.48 10.328 31.416 10.808C31.352 11.256 31.416 11.96 31.608 12.92L37.08 36.344C37.368 36.6 37.736 36.856 38.184 37.112C38.632 37.336 39.096 37.512 39.576 37.64C40.088 37.768 40.536 37.832 40.92 37.832L46.488 15.608C46.872 14.136 47.24 12.984 47.592 12.152C47.976 11.288 48.328 10.664 48.648 10.28C48.968 9.896 49.176 9.656 49.272 9.56H41.496C41.432 9.496 41.336 9.4 41.208 9.272C41.112 9.112 41.032 8.904 40.968 8.648C41.192 8.424 41.496 8.2 41.88 7.976C42.296 7.752 42.696 7.56 43.08 7.4C43.496 7.24 43.784 7.16 43.944 7.16H55.56C55.72 7.288 55.864 7.496 55.992 7.784C56.12 8.072 56.184 8.392 56.184 8.744L54.936 9.176C54.328 9.368 53.768 9.624 53.256 9.944C52.744 10.232 52.232 10.728 51.72 11.432C51.24 12.104 50.744 13.128 50.232 14.504C49.752 15.848 49.208 17.672 48.6 19.976L44.04 37.88C43.72 38.232 43.336 38.584 42.888 38.936C42.472 39.288 42.008 39.608 41.496 39.896C40.984 40.184 40.488 40.424 40.008 40.616C39.56 40.808 39.144 40.936 38.76 41C38.408 41 37.976 40.92 37.464 40.76C36.952 40.568 36.408 40.328 35.832 40.04C35.288 39.752 34.776 39.448 34.296 39.128C33.816 38.808 33.464 38.488 33.24 38.168L30.264 24.296H30.024L26.568 37.88C26.28 38.232 25.912 38.584 25.464 38.936C25.016 39.288 24.536 39.608 24.024 39.896C23.544 40.184 23.064 40.424 22.584 40.616C22.104 40.808 21.672 40.936 21.288 41Z" fill="#654321"/>
<path d="M65.3321 41C65.0761 41 64.5961 40.952 63.8921 40.856C63.2201 40.76 62.4681 40.632 61.6361 40.472C60.8041 40.28 60.0041 40.104 59.2361 39.944C58.5001 39.752 57.9401 39.592 57.5561 39.464C57.5561 39.24 57.6041 39.032 57.7001 38.84C57.8281 38.648 57.9241 38.488 57.9881 38.36L59.2841 38.168C59.8281 38.072 60.2441 37.784 60.5321 37.304C60.8201 36.824 60.9641 35.864 60.9641 34.424V7.256C60.9641 7 60.9161 6.776 60.8201 6.584C60.7241 6.392 60.5321 6.248 60.2441 6.152L56.6441 5.048C56.6761 4.76 56.7401 4.504 56.8361 4.28C56.9321 4.056 57.0121 3.896 57.0761 3.8C57.3961 3.64 57.8601 3.464 58.4681 3.272C59.1081 3.08 59.7321 2.92 60.3401 2.792C60.9801 2.664 61.4601 2.6 61.7801 2.6C62.6121 2.6 63.3481 2.92 63.9881 3.56C64.6601 4.2 64.9961 4.968 64.9961 5.864V20.216C65.7001 19.736 66.4521 19.256 67.2521 18.776C68.0521 18.264 68.8201 17.848 69.5561 17.528C70.3241 17.176 70.9801 17 71.5241 17C72.2281 17 73.0121 17.16 73.8761 17.48C74.7401 17.768 75.5721 18.152 76.3721 18.632C77.1721 19.112 77.8121 19.624 78.2921 20.168C78.8041 20.712 79.0601 21.224 79.0601 21.704V35.288C79.0601 35.992 78.9961 36.584 78.8681 37.064C78.7721 37.512 78.6761 37.832 78.5801 38.024L82.5161 38.408C82.5801 38.504 82.6441 38.648 82.7081 38.84C82.8041 39 82.8521 39.208 82.8521 39.464C82.6921 39.688 82.3881 39.928 81.9401 40.184C81.4921 40.408 81.0281 40.6 80.5481 40.76C80.1001 40.92 79.7321 41 79.4441 41C79.1881 41 78.7241 40.952 78.0521 40.856C77.3801 40.76 76.6281 40.632 75.7961 40.472C74.9641 40.28 74.1801 40.104 73.4441 39.944C72.7401 39.752 72.1961 39.608 71.8121 39.512C71.8121 39.256 71.8601 39.032 71.9561 38.84C72.0521 38.648 72.1481 38.488 72.2441 38.36L73.4921 38.168C73.8121 38.072 74.0841 37.928 74.3081 37.736C74.5641 37.544 74.7401 37.192 74.8361 36.68C74.9641 36.136 75.0281 35.384 75.0281 34.424V23.336C75.0281 23.016 74.8521 22.68 74.5001 22.328C74.1481 21.976 73.7161 21.672 73.2041 21.416C72.6921 21.128 72.1801 20.904 71.6681 20.744C71.1881 20.552 70.8201 20.456 70.5641 20.456C70.3721 20.456 70.0201 20.536 69.5081 20.696C68.9961 20.824 68.4361 21.016 67.8281 21.272C67.2521 21.496 66.6921 21.704 66.1481 21.896C65.6361 22.088 65.2521 22.248 64.9961 22.376V35.288C64.9961 35.96 64.9321 36.536 64.8041 37.016C64.6761 37.496 64.5641 37.832 64.4681 38.024L68.3081 38.408C68.3721 38.504 68.4361 38.648 68.5001 38.84C68.5961 39 68.6441 39.208 68.6441 39.464C68.4841 39.688 68.1961 39.928 67.7801 40.184C67.3641 40.408 66.9321 40.6 66.4841 40.76C66.0361 40.92 65.6521 41 65.3321 41Z" fill="#8B5E34"/>
<path d="M93.3188 41C93.0628 41 92.5828 40.952 91.8788 40.856C91.2068 40.76 90.4388 40.632 89.5748 40.472C88.7428 40.28 87.9428 40.104 87.1748 39.944C86.4388 39.752 85.8788 39.592 85.4948 39.464C85.4948 39.24 85.5428 39.032 85.6388 38.84C85.7668 38.648 85.8788 38.488 85.9748 38.36L87.2708 38.168C87.6228 38.104 87.9108 37.96 88.1348 37.736C88.3908 37.512 88.5828 37.144 88.7108 36.632C88.8708 36.12 88.9508 35.384 88.9508 34.424V21.656C88.9508 21.368 88.8868 21.128 88.7588 20.936C88.6628 20.744 88.4868 20.6 88.2308 20.504L85.4468 19.544C85.4788 19.224 85.5428 18.952 85.6388 18.728C85.7668 18.472 85.8788 18.296 85.9748 18.2C86.4548 17.944 87.1108 17.688 87.9428 17.432C88.7748 17.144 89.4148 17 89.8628 17C90.7268 17 91.4468 17.32 92.0228 17.96C92.6308 18.6 92.9348 19.368 92.9348 20.264V35.288C92.9348 35.96 92.8708 36.536 92.7428 37.016C92.6468 37.496 92.5508 37.832 92.4548 38.024L96.4388 38.408C96.5028 38.504 96.5668 38.648 96.6308 38.84C96.7268 39 96.7748 39.208 96.7748 39.464C96.5828 39.688 96.2628 39.928 95.8148 40.184C95.3988 40.408 94.9508 40.6 94.4708 40.76C94.0228 40.92 93.6388 41 93.3188 41ZM89.9588 12.008C89.7348 12.008 89.4628 11.88 89.1428 11.624C88.8228 11.368 88.5188 11.048 88.2308 10.664C87.9428 10.28 87.6868 9.896 87.4628 9.512C87.2708 9.128 87.1748 8.824 87.1748 8.6C87.1748 8.376 87.3028 8.12 87.5588 7.832C87.8468 7.512 88.1828 7.224 88.5668 6.968C88.9828 6.68 89.3828 6.456 89.7668 6.296C90.1828 6.104 90.5028 6.008 90.7268 6.008C90.9828 6.008 91.2548 6.136 91.5428 6.392C91.8308 6.648 92.1188 6.968 92.4068 7.352C92.6948 7.736 92.9188 8.12 93.0788 8.504C93.2708 8.888 93.3668 9.208 93.3668 9.464C93.3668 9.656 93.2388 9.896 92.9828 10.184C92.7588 10.472 92.4548 10.76 92.0708 11.048C91.6868 11.336 91.3028 11.576 90.9188 11.768C90.5348 11.928 90.2148 12.008 89.9588 12.008Z" fill="#D0A960"/>
<path d="M107.862 41C107.062 41 106.23 40.856 105.366 40.568C104.502 40.248 103.686 39.864 102.918 39.416C102.15 38.968 101.51 38.552 100.998 38.168C100.518 37.784 100.246 37.496 100.182 37.304C100.214 36.6 100.374 35.864 100.662 35.096C100.95 34.296 101.238 33.656 101.526 33.176C101.91 33.176 102.23 33.224 102.486 33.32C102.774 33.416 102.982 33.496 103.11 33.56C103.302 34.072 103.574 34.712 103.926 35.48C104.31 36.216 104.678 36.856 105.03 37.4C105.414 37.496 105.83 37.576 106.278 37.64C106.726 37.672 107.19 37.688 107.67 37.688C108.566 37.688 109.51 37.64 110.502 37.544C111.526 37.416 112.39 37.208 113.094 36.92C113.222 36.6 113.318 36.168 113.382 35.624C113.478 35.08 113.526 34.536 113.526 33.992C113.526 33.736 113.51 33.464 113.478 33.176C113.446 32.856 113.398 32.584 113.334 32.36C113.27 32.232 112.822 32.04 111.99 31.784C111.19 31.496 110.198 31.176 109.014 30.824C107.862 30.472 106.678 30.12 105.462 29.768C104.278 29.384 103.238 29.016 102.342 28.664C101.478 28.312 100.95 28.024 100.758 27.8C100.694 27.416 100.646 27.016 100.614 26.6C100.582 26.184 100.566 25.736 100.566 25.256C100.566 24.328 100.646 23.432 100.806 22.568C100.966 21.672 101.158 20.936 101.382 20.36C101.766 20.072 102.31 19.752 103.014 19.4C103.75 19.016 104.55 18.648 105.414 18.296C106.278 17.912 107.158 17.608 108.054 17.384C108.982 17.128 109.814 17 110.55 17C111.062 17 111.686 17.144 112.422 17.432C113.158 17.688 113.894 18.008 114.63 18.392C115.366 18.776 115.974 19.16 116.454 19.544C116.966 19.928 117.222 20.2 117.222 20.36C117.222 20.616 117.126 21.064 116.934 21.704C116.742 22.344 116.502 22.984 116.214 23.624C115.926 24.232 115.654 24.648 115.398 24.872C115.046 24.84 114.726 24.776 114.438 24.68C114.15 24.584 113.942 24.488 113.814 24.392C113.366 23.304 113.03 22.36 112.806 21.56C112.582 20.76 112.326 20.36 112.038 20.36C111.27 20.36 110.39 20.408 109.398 20.504C108.438 20.6 107.542 20.712 106.71 20.84C105.91 20.968 105.334 21.08 104.982 21.176C104.918 21.528 104.87 21.944 104.838 22.424C104.806 22.872 104.79 23.32 104.79 23.768C104.79 24.184 104.79 24.584 104.79 24.968C104.822 25.32 104.87 25.64 104.934 25.928C105.062 26.024 105.51 26.184 106.278 26.408C107.046 26.6 107.99 26.856 109.11 27.176C110.23 27.464 111.366 27.784 112.518 28.136C113.702 28.488 114.742 28.872 115.638 29.288C116.566 29.672 117.19 30.056 117.51 30.44C117.606 30.728 117.67 31.064 117.702 31.448C117.766 31.832 117.798 32.232 117.798 32.648C117.798 33.672 117.686 34.712 117.462 35.768C117.27 36.792 117.094 37.48 116.934 37.832C116.582 38.152 116.07 38.504 115.398 38.888C114.726 39.24 113.958 39.576 113.094 39.896C112.262 40.216 111.398 40.488 110.502 40.712C109.606 40.904 108.726 41 107.862 41ZM129.692 41C129.468 41 129.004 40.952 128.3 40.856C127.628 40.76 126.876 40.632 126.044 40.472C125.212 40.28 124.412 40.104 123.644 39.944C122.908 39.752 122.348 39.592 121.964 39.464C121.964 39.24 122.012 39.032 122.108 38.84C122.204 38.648 122.3 38.488 122.396 38.36L123.692 38.168C124.236 38.072 124.652 37.784 124.94 37.304C125.228 36.792 125.372 35.832 125.372 34.424V7.256C125.372 7 125.324 6.776 125.228 6.584C125.132 6.36 124.94 6.2 124.652 6.104L121.388 5.048C121.42 4.76 121.484 4.504 121.58 4.28C121.676 4.056 121.74 3.896 121.771 3.8C122.124 3.64 122.588 3.464 123.164 3.272C123.74 3.08 124.332 2.92 124.94 2.792C125.548 2.664 126.012 2.6 126.332 2.6C127.164 2.6 127.884 2.92 128.492 3.56C129.1 4.2 129.404 4.968 129.404 5.864V20.36C130.172 19.88 131.036 19.384 131.996 18.872C132.988 18.328 133.932 17.88 134.828 17.528C135.724 17.176 136.444 17 136.988 17C137.532 17 138.156 17.16 138.86 17.48C139.596 17.8 140.316 18.216 141.02 18.728C141.756 19.208 142.364 19.72 142.844 20.264C143.324 20.808 143.564 21.288 143.564 21.704C143.564 22.312 143.26 22.984 142.652 23.72C142.076 24.424 141.372 25.128 140.54 25.832C139.708 26.536 138.924 27.16 138.188 27.704C137.484 28.248 137.004 28.616 136.748 28.808C136.876 28.904 137.068 29.096 137.324 29.384C137.612 29.672 137.996 30.168 138.476 30.872L141.5 35.24C141.916 35.816 142.364 36.376 142.844 36.92C143.356 37.432 144.044 37.688 144.908 37.688H146.156C146.252 37.72 146.348 37.832 146.444 38.024C146.572 38.184 146.635 38.376 146.635 38.6C146.412 39.016 146.06 39.416 145.58 39.8C145.1 40.152 144.588 40.44 144.044 40.664C143.532 40.888 143.116 41 142.796 41C142.156 41 141.468 40.744 140.732 40.232C139.996 39.72 139.324 39 138.716 38.072L134.876 32.264C134.3 31.336 133.804 30.664 133.388 30.248C132.972 29.8 132.652 29.496 132.428 29.336C132.204 29.176 132.012 29.048 131.852 28.952C131.852 28.664 131.932 28.424 132.092 28.232C132.252 28.008 132.38 27.832 132.476 27.704L134.732 27.464C134.924 27.304 135.244 27.048 135.692 26.696C136.172 26.312 136.668 25.896 137.18 25.448C137.692 25 138.124 24.568 138.476 24.152C138.86 23.736 139.068 23.4 139.1 23.144C139.1 22.952 138.956 22.696 138.668 22.376C138.412 22.056 138.092 21.736 137.708 21.416C137.324 21.096 136.94 20.84 136.556 20.648C136.172 20.424 135.868 20.312 135.644 20.312C135.036 20.312 134.124 20.536 132.908 20.984C131.724 21.4 130.556 21.88 129.404 22.424V35.288C129.404 35.96 129.34 36.536 129.212 37.016C129.084 37.496 128.972 37.832 128.876 38.024L132.859 38.408C132.924 38.504 132.988 38.648 133.052 38.84C133.148 39 133.196 39.208 133.196 39.464C133.004 39.688 132.684 39.928 132.236 40.184C131.82 40.408 131.372 40.6 130.892 40.76C130.412 40.92 130.012 41 129.692 41ZM151.382 50.6C151.094 50.6 150.71 50.488 150.23 50.264C149.782 50.072 149.334 49.832 148.886 49.544C148.438 49.288 148.118 49.016 147.926 48.728C147.958 48.472 148.006 48.248 148.07 48.056C148.134 47.896 148.198 47.784 148.262 47.72C149.766 47.528 151.254 47.08 152.726 46.376C154.198 45.672 155.558 44.76 156.806 43.64C158.086 42.552 159.158 41.304 160.022 39.896C158.87 39.576 157.782 39.192 156.758 38.744C155.734 38.264 154.87 37.8 154.166 37.352C153.462 36.904 152.998 36.552 152.773 36.296L150.326 23.384C150.23 22.776 150.07 22.184 149.846 21.608C149.654 21.032 149.254 20.632 148.646 20.408L146.053 19.544C146.085 19.192 146.165 18.904 146.293 18.68C146.389 18.456 146.47 18.312 146.534 18.248C146.854 18.056 147.254 17.864 147.734 17.672C148.214 17.48 148.694 17.32 149.174 17.192C149.654 17.064 150.022 17 150.278 17C151.366 17 152.246 17.416 152.918 18.248C153.59 19.048 154.022 20.072 154.214 21.32L156.134 34.088C156.326 34.312 156.71 34.616 157.286 35C157.862 35.384 158.534 35.784 159.302 36.2C160.07 36.584 160.822 36.904 161.558 37.16C162.102 36.04 162.582 34.888 162.998 33.704C163.446 32.488 163.83 31.304 164.15 30.152C164.502 28.968 164.774 27.832 164.966 26.744C165.19 25.656 165.366 24.648 165.494 23.72C165.622 22.792 165.702 21.976 165.734 21.272C165.318 20.984 164.742 20.696 164.006 20.408C163.27 20.088 162.534 19.8 161.798 19.544C161.094 19.256 160.518 19.048 160.07 18.92C160.102 18.632 160.166 18.392 160.262 18.2C160.358 17.976 160.438 17.8 160.502 17.672C160.822 17.544 161.222 17.432 161.702 17.336C162.214 17.24 162.758 17.16 163.334 17.096C163.91 17.032 164.438 17 164.918 17C165.302 17 165.766 17.144 166.31 17.432C166.854 17.688 167.382 18.008 167.894 18.392C168.438 18.776 168.886 19.16 169.238 19.544C169.622 19.896 169.814 20.168 169.814 20.36C169.814 21.544 169.638 22.968 169.286 24.632C168.934 26.264 168.438 28.04 167.798 29.96C167.19 31.848 166.454 33.752 165.59 35.672C164.694 37.624 163.702 39.496 162.614 41.288C161.558 43.08 160.422 44.664 159.206 46.04C157.99 47.448 156.726 48.552 155.414 49.352C154.102 50.184 152.758 50.6 151.382 50.6Z" fill="black"/>
</g>
<defs>
<filter id="filter0_d_125_13" x="0.816406" y="0.600098" width="177.996" height="60" filterUnits="userSpaceOnUse" color-interpolation-filters="sRGB">
<feFlood flood-opacity="0" result="BackgroundImageFix"/>
<feColorMatrix in="SourceAlpha" type="matrix" values="0 0 0 0 0 0 0 0 0 0 0 0 0 0 0 0 0 0 127 0" result="hardAlpha"/>
<feOffset dx="3" dy="4"/>
<feGaussianBlur stdDeviation="3"/>
<feComposite in2="hardAlpha" operator="out"/>
<feColorMatrix type="matrix" values="0 0 0 0 0 0 0 0 0 0 0 0 0 0 0 0 0 0 1 0"/>
<feBlend mode="normal" in2="BackgroundImageFix" result="effect1_dropShadow_125_13"/>
<feBlend mode="normal" in="SourceGraphic" in2="effect1_dropShadow_125_13" result="shape"/>
</filter>
</defs>
</svg>
